<?xml version="1.0" encoding="utf-8"?>
<!-- Generator: Adobe Illustrator 24.0.0, SVG Export Plug-In . SVG Version: 6.00 Build 0)  -->
<svg version="1.1" id="Capa_1" 
	 viewBox="0 0 500 500"  xml:space="preserve">
<g>
	<path class="st0" d="M415.31,461.15c-6.64,0-12.89-2.59-17.59-7.29L268.37,324.51c-4.89-4.89-11.38-7.58-18.29-7.58
		c-6.91,0-13.41,2.69-18.29,7.58L102.59,453.71c-4.7,4.7-10.94,7.29-17.59,7.29s-12.89-2.59-17.59-7.29l-21.36-21.36
		c-9.7-9.7-9.7-25.48,0-35.17l129.19-129.19c4.89-4.89,7.58-11.38,7.58-18.29c0-6.91-2.69-13.41-7.58-18.29l-129.1-129.1
		c-9.7-9.7-9.7-25.48,0-35.17L67.5,45.76c4.7-4.7,10.94-7.28,17.59-7.28s12.89,2.59,17.59,7.28l129.1,129.1
		c4.89,4.89,11.38,7.58,18.29,7.58c6.91,0,13.41-2.69,18.29-7.58L397.63,45.6c4.7-4.7,10.94-7.29,17.59-7.29s12.89,2.59,17.59,7.29
		l21.36,21.36c9.7,9.7,9.7,25.48,0,35.17L324.9,231.39c-10.09,10.09-10.09,26.5,0,36.59l129.35,129.35c9.7,9.7,9.7,25.48,0,35.17
		l-21.36,21.36C428.2,458.56,421.95,461.15,415.31,461.15z"/>
	<path d="M415.21,38.82c6.51,0,12.63,2.54,17.23,7.14l21.36,21.36c9.5,9.5,9.5,24.96,0,34.47L324.55,231.04
		c-4.98,4.98-7.72,11.6-7.72,18.65c0,7.04,2.74,13.67,7.72,18.65L453.9,397.69c9.5,9.5,9.5,24.96,0,34.47l-21.36,21.36
		c-4.6,4.6-10.72,7.14-17.23,7.14c-6.51,0-12.63-2.54-17.23-7.14L268.72,324.16c-4.98-4.98-11.6-7.72-18.65-7.72
		c-7.04,0-13.67,2.74-18.65,7.72L102.23,453.35c-4.6,4.6-10.72,7.14-17.23,7.14c-6.51,0-12.63-2.54-17.23-7.14L46.41,432
		c-9.5-9.5-9.5-24.96,0-34.47L175.6,268.34c4.98-4.98,7.72-11.6,7.72-18.65c0-7.04-2.74-13.67-7.72-18.65L46.5,101.94
		c-9.5-9.5-9.5-24.96,0-34.47l21.36-21.36c4.6-4.6,10.72-7.14,17.23-7.14c6.51,0,12.63,2.54,17.23,7.14l129.1,129.1
		c4.98,4.98,11.6,7.72,18.65,7.72c7.04,0,13.67-2.74,18.65-7.72L397.98,45.96C402.58,41.35,408.7,38.82,415.21,38.82 M415.21,37.82
		c-6.49,0-12.99,2.48-17.94,7.43L268.01,174.51c-4.95,4.95-11.45,7.43-17.94,7.43c-6.49,0-12.99-2.48-17.94-7.43l-129.1-129.1
		c-4.95-4.95-11.45-7.43-17.94-7.43c-6.49,0-12.99,2.48-17.94,7.43L45.79,66.76c-9.91,9.91-9.91,25.97,0,35.88l129.1,129.1
		c9.91,9.91,9.91,25.97,0,35.88L45.7,396.82c-9.91,9.91-9.91,25.97,0,35.88l21.36,21.36c4.95,4.95,11.45,7.43,17.94,7.43
		s12.99-2.48,17.94-7.43l129.19-129.19c4.95-4.95,11.45-7.43,17.94-7.43c6.49,0,12.99,2.48,17.94,7.43l129.35,129.35
		c4.95,4.95,11.45,7.43,17.94,7.43c6.49,0,12.99-2.48,17.94-7.43l21.36-21.36c9.91-9.91,9.91-25.97,0-35.88L325.25,267.63
		c-9.91-9.91-9.91-25.97,0-35.88l129.26-129.26c9.91-9.91,9.91-25.97,0-35.88l-21.36-21.36C428.2,40.3,421.71,37.82,415.21,37.82
		L415.21,37.82z"/>
</g>
</svg>
