<?xml version="1.0" encoding="utf-8"?>
<!-- Generator: Adobe Illustrator 24.0.0, SVG Export Plug-In . SVG Version: 6.00 Build 0)  -->
<svg version="1.1" id="Check" xmlns="http://www.w3.org/2000/svg" xmlns:xlink="http://www.w3.org/1999/xlink" x="0px" y="0px"
	 viewBox="0 0 500 500" style="enable-background:new 0 0 500 500;" xml:space="preserve">
<style type="text/css">
	.st0{fill:#FFFFFF;}
</style>
<g>
	<path class="st0" d="M245.1,453.5c-6.8,0-13.4-2-19-5.9L23.3,308.4C8,297.9,4.1,276.9,14.6,261.6l28.5-41.5
		c6.3-9.2,16.7-14.6,27.8-14.6c6.8,0,13.4,2.1,19,5.9l104,71.4c5.8,4,12.6,6.1,19.6,6.1c11.4,0,22.1-5.6,28.6-15.1L387.7,61.8
		c6.3-9.2,16.7-14.6,27.8-14.6c6.8,0,13.4,2,19,5.9l42.3,29.1c7.4,5.1,12.4,12.8,14,21.6c1.6,8.8-0.3,17.8-5.3,25.2L272.9,438.9
		C266.6,448,256.2,453.5,245.1,453.5L245.1,453.5z"/>
	<path d="M415.5,47.6c6.7,0,13.2,2,18.7,5.8l42.3,29.1c7.3,5,12.2,12.6,13.8,21.3s-0.3,17.5-5.3,24.8L272.5,438.6
		c-6.2,9-16.4,14.4-27.4,14.4c-6.7,0-13.2-2-18.7-5.8l-70.5-48.4L23.6,308C8.5,297.6,4.7,277,15,261.9l28.5-41.5
		c6.2-9,16.4-14.4,27.4-14.4c6.7,0,13.2,2,18.7,5.8l104,71.4c5.9,4,12.8,6.2,19.9,6.2c11.6,0,22.5-5.7,29-15.3L388.1,62
		C394.3,53,404.6,47.6,415.5,47.6 M415.5,46.6c-10.9,0-21.6,5.2-28.2,14.8L241.7,273.6c-6.6,9.6-17.3,14.8-28.2,14.8
		c-6.7,0-13.4-2-19.3-6L90.2,211c-5.9-4.1-12.7-6-19.3-6c-10.9,0-21.6,5.2-28.2,14.8l-28.5,41.5c-10.7,15.6-6.7,36.8,8.8,47.5
		l132.2,90.8l70.5,48.4c5.9,4.1,12.6,6,19.3,6c10.9,0,21.6-5.2,28.2-14.8L486,129.2c10.7-15.6,6.7-36.8-8.8-47.5l-42.3-29.1
		C428.9,48.6,422.2,46.6,415.5,46.6L415.5,46.6z"/>
</g>
</svg>
